Coordinates
version=1
nRows=9
nColumns=63
inDegrees=yes

Units are S.I. units (second, meters, Newtons, ...)
If the header above contains a line with 'inDegrees', this indicates whether rotational values are in degrees (yes) or radians (no).

endheader
time	pelvis_tilt	pelvis_list	pelvis_rotation	pelvis_tx	pelvis_ty	pelvis_tz	hip_flexion_r	hip_adduction_r	hip_rotation_r	knee_angle_r	knee_angle_r_beta	ankle_angle_r	subtalar_angle_r	mtp_angle_r	hip_flexion_l	hip_adduction_l	hip_rotation_l	knee_angle_l	knee_angle_l_beta	ankle_angle_l	subtalar_angle_l	mtp_angle_l	L5_S1_Flex_Ext	L5_S1_Lat_Bending	L5_S1_axial_rotation	L4_L5_Flex_Ext	L4_L5_Lat_Bending	L4_L5_axial_rotation	L3_L4_Flex_Ext	L3_L4_Lat_Bending	L3_L4_axial_rotation	L2_L3_Flex_Ext	L2_L3_Lat_Bending	L2_L3_axial_rotation	L1_L2_Flex_Ext	L1_L2_Lat_Bending	L1_L2_axial_rotation	L1_T12_Flex_Ext	L1_T12_Lat_Bending	L1_T12_axial_rotation	Abs_r3	Abs_r2	Abs_r1	Abs_t1	Abs_t2	neck_flexion	neck_bending	neck_rotation	arm_flex_r	arm_add_r	arm_rot_r	elbow_flex_r	pro_sup_r	wrist_flex_r	wrist_dev_r	arm_flex_l	arm_add_l	arm_rot_l	elbow_flex_l	pro_sup_l	wrist_flex_l	wrist_dev_l
      2.27118644	     12.09872718	     35.66240351	     82.29453121	      0.11497601	      0.92782987	      0.83811953	    -31.37955583	      4.77034558	    -10.05841519	     15.83405404	      0.27635638	     15.28215458	     18.92483602	      0.00000000	    -29.66895007	     -6.90249287	     -1.65615367	     20.73872578	      0.36195905	     20.81114382	    -13.06839045	      0.00000000	      1.32798900	     -9.30798774	    -36.85759060	      2.46620837	    -12.37962370	    -39.16119002	      2.18175313	    -22.63144140	    -39.16119002	      1.51775863	    -22.63144140	    -32.25039178	      1.23317059	    -18.98084861	    -29.94679236	      0.75881291	    -14.41807302	    -27.64319295	      9.48569263	   -105.29381896	   -204.99086166	      0.00000000	      0.00000000	     28.59552701	     67.91221459	     44.93134196	    256.24114792	     21.37855747	    -24.07738617	      0.03042177	      0.47025410	    -69.94843563	    -24.78127781	    258.37973569	     73.38749399	    347.11781268	      0.02924848	      0.39495421	    -69.95097116	    -24.80752604
      2.28813559	     12.43208559	     33.98825617	     81.71311987	      0.11282214	      0.92899564	      0.83463859	    -29.84846904	      4.86734731	     -9.52907945	     15.71660898	      0.27430657	     14.46429729	     19.00057638	      0.00000000	    -28.33704786	     -6.95813933	     -2.06509282	     20.41722544	      0.35634781	     20.31694969	    -13.49349847	      0.00000000	      1.32948731	     -9.09736527	    -37.34877266	      2.46899089	    -12.09949581	    -39.68307095	      2.18421471	    -22.11933392	    -39.68307095	      1.51947105	    -22.11933392	    -32.68017608	      1.23456192	    -18.55134726	    -30.34587779	      0.75966905	    -14.09181881	    -28.01157950	      9.49639493	   -102.91121543	   -207.72266892	      0.00000000	      0.00000000	     28.59568763	     68.29285285	     44.93116719	    257.92727554	     19.45775880	    -17.88319908	      0.02975795	      0.51769211	    -69.94830118	    -24.78893689	    264.62263125	     73.45176963	    344.11158805	      0.03021951	      0.42136849	    -69.94765013	    -24.79877931
      2.30508475	     12.33199885	     32.69573151	     81.36512063	      0.11255381	      0.93022951	      0.83114281	    -28.68207058	      4.69020449	     -9.30583256	     15.69803668	      0.27398243	     13.74354207	     19.03939739	      0.00000000	    -27.36530923	     -6.77923296	     -2.48276107	     20.02813072	      0.34955682	     19.85400762	    -13.53663536	      0.00000000	      1.30080787	     -8.87504237	    -37.62508124	      2.41573029	    -11.80380635	    -39.97664881	      2.13709724	    -21.57877801	    -39.97664881	      1.48669331	    -21.57877801	    -32.92194608	      1.20793018	    -18.09798640	    -30.57037850	      0.74328161	    -13.74744063	    -28.21881093	      9.29154050	   -100.39625427	   -209.25941431	      0.00000000	      0.00000000	     28.59583644	     68.14033490	     44.93106333	    259.64824403	     18.40269836	    -12.82098988	      0.02937710	      0.52743021	    -69.94808605	    -24.78791751	    270.05064486	     73.00093594	    342.38506984	      0.03136120	      0.42541479	    -69.94396192	    -24.77890885
      2.32203390	     11.99216043	     31.48006038	     80.96532534	      0.11326598	      0.93179265	      0.82687693	    -27.62479848	      4.26373232	     -9.11496067	     15.67461041	      0.27357356	     12.91668858	     19.10511237	      0.00000000	    -26.53979117	     -6.38575800	     -3.21175303	     19.54509684	      0.34112629	     19.15785455	    -13.47061522	      0.00000000	      1.26573061	     -8.61387524	    -37.83987179	      2.35058831	    -11.45645407	    -40.20486378	      2.07946881	    -20.94377626	    -40.20486378	      1.44660351	    -20.94377626	    -33.10988782	      1.17535744	    -17.56541439	    -30.74489583	      0.72323847	    -13.34289275	    -28.37990385	      9.04098714	    -97.44187950	   -210.45401496	      0.00000000	      0.00000000	     28.59585332	     68.01327144	     44.93075901	    261.74032006	     17.38954996	     -9.91901923	      0.02917710	      0.52732858	    -69.94783604	    -24.78528994	    276.64437556	     72.20881584	    337.28281851	      0.03244378	      0.47107606	    -69.93985279	    -24.76429339
      2.33898305	     11.38576267	     30.60354148	     80.87095004	      0.11528027	      0.93324773	      0.82296618	    -26.86903535	      3.74484574	     -9.20814818	     15.68403243	      0.27373801	     12.29519653	     19.13284543	      0.00000000	    -25.97841995	     -5.91997264	     -3.75021868	     19.06826477	      0.33280400	     18.57300154	    -13.07293033	      0.00000000	      1.21226874	     -8.36882709	    -37.89973043	      2.25130428	    -11.13054003	    -40.26846358	      1.99163631	    -20.34796619	    -40.26846358	      1.38550194	    -20.34796619	    -33.16226413	      1.12571275	    -17.06571221	    -30.79353097	      0.69269036	    -12.96331317	    -28.42479782	      8.65911438	    -94.66984583	   -210.78693073	      0.00000000	      0.00000000	     28.59572040	     67.55158786	     44.93038680	    263.72646259	     17.08649845	     -7.86976240	      0.02924250	      0.51254982	    -69.94716449	    -24.77837835	    281.77946731	     71.09045281	    334.09854307	      0.03366163	      0.49398474	    -69.93591136	    -24.73870909
      2.35593220	     10.64406929	     29.93901097	     80.94951304	      0.11791796	      0.93453971	      0.81957189	    -26.26433712	      3.17057008	     -9.44622138	     15.74789160	      0.27485256	     11.86156557	     19.14495753	      0.00000000	    -25.51032036	     -5.42438174	     -4.21582117	     18.73169871	      0.32692982	     18.07801969	    -12.56336502	      0.00000000	      1.15809176	     -8.14268408	    -37.86825465	      2.15069220	    -10.82976982	    -40.23502056	      1.90262895	    -19.79812206	    -40.23502056	      1.32358307	    -19.79812206	    -33.13472282	      1.07540401	    -16.60456137	    -30.76795690	      0.66173363	    -12.61301763	    -28.40119098	      8.27213362	    -92.11167080	   -210.61187187	      0.00000000	      0.00000000	     28.59549616	     66.94556851	     44.92994376	    265.56767997	     17.17231243	     -6.48127404	      0.02944447	      0.49417326	    -69.94619514	    -24.77073650	    285.94914019	     69.77998525	    331.43814151	      0.03481938	      0.51002816	    -69.93216761	    -24.70878031
      2.37288136	      9.82420555	     29.55542640	     81.19082264	      0.12082951	      0.93562625	      0.81692169	    -25.90028277	      2.58031549	     -9.82066493	     15.81443535	      0.27601397	     11.67805637	     19.14447080	      0.00000000	    -25.21795387	     -4.91403317	     -4.50006776	     18.51289860	      0.32311103	     17.72486885	    -11.98315930	      0.00000000	      1.10277531	     -7.95177004	    -37.73236947	      2.04796404	    -10.57585415	    -40.09064256	      1.81174956	    -19.33393366	    -40.09064256	      1.26036191	    -19.33393366	    -33.01582328	      1.02403716	    -16.21524946	    -30.65755019	      0.63012581	    -12.31729178	    -28.29927710	      7.87701380	    -89.95201299	   -209.85611927	      0.00000000	      0.00000000	     28.59525182	     66.08733806	     44.92951218	    267.13278712	     17.78674336	     -5.58037220	      0.02972226	      0.48004561	    -69.94513735	    -24.76367516	    288.90106285	     68.29501018	    329.53053960	      0.03585325	      0.51653968	    -69.92897645	    -24.67619363
      2.38983051	      8.98973874	     29.51464504	     81.57483078	      0.12380709	      0.93661728	      0.81517264	    -25.86756373	      2.02613337	    -10.16944148	     15.82942983	      0.27627567	     11.73372291	     19.12870881	      0.00000000	    -25.18258492	     -4.41561929	     -4.56054324	     18.38007698	      0.32079286	     17.45516067	    -11.45579771	      0.00000000	      1.04308544	     -7.80938514	    -37.48086863	      1.93711396	    -10.38648224	    -39.82342292	      1.71368506	    -18.98773904	    -39.82342292	      1.19214235	    -18.98773904	    -32.79576005	      0.96860914	    -15.92489818	    -30.45320576	      0.59601902	    -12.09673759	    -28.11065147	      7.45065496	    -88.34132662	   -208.45734704	      0.00000000	      0.00000000	     28.59513693	     64.85855192	     44.92916875	    268.34515397	     19.04757711	     -5.03619267	      0.02997361	      0.46882201	    -69.94424984	    -24.75859206	    290.53517989	     66.66578738	    328.49263044	      0.03667612	      0.51852214	    -69.92663918	    -24.64712021
      2.40677966	      8.18149909	     29.74193658	     82.14071931	      0.12632821	      0.93752829	      0.81429283	    -26.14645565	      1.57385083	    -10.55921700	     15.68014615	      0.27367018	     11.86685039	     19.09209275	      0.00000000	    -25.30125247	     -3.97436022	     -4.31680964	     18.38421310	      0.32086505	     17.31433201	    -11.09885499	      0.00000000	      0.97141028	     -7.70844685	    -37.17793671	      1.80400603	    -10.25223431	    -39.50155775	      1.59592995	    -18.74231767	    -39.50155775	      1.11022481	    -18.74231767	    -32.53069462	      0.90205158	    -15.71906481	    -30.20707358	      0.55506383	    -11.94038417	    -27.88345253	      6.93868648	    -87.19949243	   -206.77253059	      0.00000000	      0.00000000	     28.59537673	     63.65339319	     44.92976732	    269.22562673	     20.77671025	     -4.67412990	      0.03012764	      0.46238949	    -69.94386941	    -24.75765216	    291.24881333	     65.01448496	    327.84375862	      0.03718244	      0.51099420	    -69.92528339	    -24.62819471
